name analog
datacolumns 19
datarows 18
range 0.0 0.0085
endheader
time	ground_force_vx	ground_force_vy	ground_force_vz	ground_force_px	ground_force_py	ground_force_pz	l_ground_force_vx	l_ground_force_vy	l_ground_force_vz	l_ground_force_px	l_ground_force_py	l_ground_force_pz	ground_torque_x	ground_torque_y	ground_torque_z	l_ground_torque_x	l_ground_torque_y	l_ground_torque_z
0.0	-0.0	-0.0	-0.0	0.893303632736206	16.399993896484375	-407.9275817871094	-0.5322647094726562	-18.03121566772461	-325.0655517578125	-0.0	-0.0	-0.0	-0.0	-0.0	-0.0	94447.5	5757.59375	-2258.512451171875
0.0005	-0.0	-0.0	-0.0	1.3288803100585938	16.666227340698242	-405.7945861816406	-0.7997235655784607	-18.37355232238769	-325.7167053222656	-0.0	-0.0	-0.0	-0.0	-0.0	-0.0	94725.9375	6029.38037109375	-2259.70263671875
0.001	-0.0	-0.0	-0.0	0.9790478348731996	16.751983642578125	-408.2625427246094	-1.0619276762008667	-18.54496383666992	-324.36700439453125	-0.0	-0.0	-0.0	-0.0	-0.0	-0.0	94870.3984375	6016.26123046875	-2317.085693359375
0.0015	-0.0	-0.0	-0.0	0.6299487352371216	16.67066764831543	-407.556640625	-0.542362630367279	-18.107202529907227	-325.4043273925781	-0.0	-0.0	-0.0	-0.0	-0.0	-0.0	94781.8046875	6272.9521484375	-2347.177734375
0.002	-0.0	-0.0	-0.0	0.2771372497081756	16.675827026367188	-406.1443786621094	-1.0633058547973633	-18.022497177124023	-324.7158203125	-0.0	-0.0	-0.0	-0.0	-0.0	-0.0	94705.96875	5956.4462890625	-2259.391845703125
0.0025	-0.0	-0.0	-0.0	1.416033387184143	16.929628372192383	-406.8428955078125	-0.6281635165214539	-18.19307518005371	-325.0601806640625	-0.0	-0.0	-0.0	-0.0	-0.0	-0.0	94589.0078125	6098.52734375	-2202.209716796875
0.003	-0.0	-0.0	-0.0	1.059618592262268	16.400983810424805	-405.8116149902344	-1.0622106790542605	-18.193113327026367	-324.3572998046875	-0.0	-0.0	-0.0	-0.0	-0.0	-0.0	94519.7890625	5786.50244140625	-2259.455810546875
0.0035	-0.0	-0.0	-0.0	0.2695370316505432	16.577302932739258	-406.5176696777344	-1.0645294189453125	-18.102598190307617	-325.7408447265625	-0.0	-0.0	-0.0	-0.0	-0.0	-0.0	94650.2734375	6073.78564453125	-2260.197021484375
0.004	-0.0	-0.0	-0.0	0.626301646232605	16.136255264282227	-406.1605529785156	-0.9779831767082214	-18.19211196899414	-322.9780578613281	-0.0	-0.0	-0.0	-0.0	-0.0	-0.0	94129.0390625	6018.9873046875	-2377.715576171875
0.0045000000000000005	-0.0	-0.0	-0.0	0.5370392799377441	16.756515502929688	-405.1114807128906	-0.8881643414497375	-17.583377838134766	-324.36187744140625	-0.0	-0.0	-0.0	-0.0	-0.0	-0.0	94419.9765625	6257.01171875	-2407.53173828125
0.005	-0.0	-0.0	-0.0	0.71368408203125	16.658899307250977	-403.3415832519531	-1.4173368215560913	-17.934370040893555	-323.6555480957031	-0.0	-0.0	-0.0	-0.0	-0.0	-0.0	94635.3984375	5991.56982421875	-2349.36279296875
0.0055	-0.0	-0.0	-0.0	0.5360735058784485	16.48021697998047	-405.4601745605469	-1.0625709295272827	-18.19329261779785	-322.2785339355469	-0.0	-0.0	-0.0	-0.0	-0.0	-0.0	94320.8515625	6132.47119140625	-2291.47265625
0.006	-0.0	-0.0	-0.0	0.9750387072563172	16.575902938842773	-404.0347290039063	-0.891875684261322	-18.19331741333008	-323.29937744140625	-0.0	-0.0	-0.0	-0.0	-0.0	-0.0	94583.4921875	6142.1357421875	-2467.370849609375
0.006500000000000001	-0.0	-0.0	-0.0	0.8868846893310547	16.224714279174805	-403.6965026855469	-1.2401211261749268	-17.843713760375977	-321.9429931640625	-0.0	-0.0	-0.0	-0.0	-0.0	-0.0	94104.5078125	6294.00048828125	-2261.10498046875
0.007	-0.0	-0.0	-0.0	0.8028945922851562	15.954341888427734	-405.4169921875	-1.153240203857422	-18.105073928833008	-322.2773132324219	-0.0	-0.0	-0.0	-0.0	-0.0	-0.0	94509.96875	6242.517578125	-2231.979736328125
0.0075	-0.0	-0.0	-0.0	0.7095732688903809	16.489124298095703	-402.9783325195313	-1.153240203857422	-17.75776481628418	-323.6467590332031	-0.0	-0.0	-0.0	-0.0	-0.0	-0.0	94297.5625	6298.7958984375	-2494.537841796875
0.008	-0.0	-0.0	-0.0	0.8882273435592651	16.752641677856445	-402.2642822265625	-0.976634681224823	-18.45354461669922	-322.6160888671875	-0.0	-0.0	-0.0	-0.0	-0.0	-0.0	94003.953125	6136.5595703125	-2290.331298828125
0.0085	-0.0	-0.0	-0.0	0.3604867160320282	17.017230987548828	-402.62994384765625	-1.5026415586471558	-17.75730323791504	-323.66357421875	-0.0	-0.0	-0.0	-0.0	-0.0	-0.0	94098.8046875	6398.0654296875	-2407.84619140625
